<?xml version="1.0" encoding="UTF-8" standalone="no"?>
<!-- Created with Inkscape (http://www.inkscape.org/) -->

<svg
   xmlns:dc="http://purl.org/dc/elements/1.1/"
   xmlns:cc="http://creativecommons.org/ns#"
   xmlns:rdf="http://www.w3.org/1999/02/22-rdf-syntax-ns#"
   xmlns:svg="http://www.w3.org/2000/svg"
   xmlns="http://www.w3.org/2000/svg"
   xmlns:sodipodi="http://sodipodi.sourceforge.net/DTD/sodipodi-0.dtd"
   xmlns:inkscape="http://www.inkscape.org/namespaces/inkscape"
   version="1.1"
   width="205.1125"
   height="181.1375"
   id="svg2"
   xml:space="preserve"
   inkscape:version="0.48.4 r9939"
   sodipodi:docname="feedly-icon.svg"><sodipodi:namedview
     pagecolor="#ffffff"
     bordercolor="#666666"
     borderopacity="1"
     objecttolerance="10"
     gridtolerance="10"
     guidetolerance="10"
     inkscape:pageopacity="0"
     inkscape:pageshadow="2"
     inkscape:window-width="1920"
     inkscape:window-height="1056"
     id="namedview8"
     showgrid="false"
     inkscape:zoom="4.7280209"
     inkscape:cx="60.149502"
     inkscape:cy="90.568748"
     inkscape:window-x="1280"
     inkscape:window-y="24"
     inkscape:window-maximized="1"
     inkscape:current-layer="svg2" /><metadata
     id="metadata8"><rdf:RDF><cc:Work
         rdf:about=""><dc:format>image/svg+xml</dc:format><dc:type
           rdf:resource="http://purl.org/dc/dcmitype/StillImage" /><dc:title /></cc:Work></rdf:RDF></metadata><defs
     id="defs6" /><g
     transform="matrix(1.25,0,0,-1.25,0,181.1375)"
     id="g10"
     style="fill:#5677fc;fill-opacity:1"><g
       transform="scale(0.1,0.1)"
       id="g12"
       style="fill:#5677fc;fill-opacity:1"><path
         d="M 929.844,610.32 674.297,354.781 c -4.668,-4.672 -11.133,-7.562 -18.262,-7.562 l -54.765,0 c -6.485,0 -12.422,2.402 -16.954,6.351 l -65.195,65.18 c -10,10.012 -10,26.371 0,36.367 L 802.09,738.074 c 10,10.012 26.367,10.012 36.367,0 l 91.387,-91.394 c 10,-10 10,-26.36 0,-36.36 z m 0,-383.218 -63.926,-63.93 c -4.668,-4.684 -11.133,-7.57 -18.262,-7.57 l -54.765,0 c -6.504,0 -12.422,2.41 -16.973,6.359 l -65.176,65.187 c -10,9.993 -10,26.352 0,36.34 l 91.348,91.364 c 10,9.988 26.367,9.988 36.348,0 l 91.406,-91.391 c 10,-10 10,-26.359 0,-36.359 z M 482.676,546.414 c -4.668,-4.676 -11.133,-7.566 -18.262,-7.566 l -54.766,0 c -6.484,0 -12.421,2.39 -16.953,6.347 L 327.5,610.379 c -10,9.992 -10,26.359 0,36.359 l 474.59,474.582 c 10,10 26.348,10 36.348,0 l 91.406,-91.4 c 10,-10 10,-26.36 0,-36.357 L 482.676,546.414 z m 465,850.126 c -70.078,70.08 -184.746,70.08 -254.824,0 L 52.5586,756.25 c -70.0781,-70.09 -70.0781,-184.758 0,-254.844 L 509.453,44.5195 C 541.27,16.8008 582.852,0 628.359,0 l 383.831,0 c 50.02,0 95.29,20.2813 128.06,53.0391 L 1588.3,501.094 c 70.08,70.078 70.08,184.754 0,254.832 L 947.676,1396.54"
         id="path14"
         style="fill:#5677fc;fill-opacity:1;fill-rule:nonzero;stroke:none" /></g></g></svg>